<?xml version="1.0" encoding="UTF-8" standalone="no"?>
<!DOCTYPE svg PUBLIC "-//W3C//DTD SVG 1.1//EN" "http://www.w3.org/Graphics/SVG/1.1/DTD/svg11.dtd">
<svg version="1.1" xmlns="http://www.w3.org/2000/svg" xmlns:xlink="http://www.w3.org/1999/xlink" preserveAspectRatio="xMidYMid meet" viewBox="0 0 512 512" width="512" height="512"><defs><path d="M482.62 480.11L483.92 480.24L485.19 480.42L486.45 480.65L487.69 480.93L488.91 481.26L490.11 481.63L491.3 482.05L492.46 482.51L493.59 483.02L494.71 483.57L495.79 484.16L496.86 484.79L497.89 485.47L498.9 486.17L499.88 486.92L500.83 487.7L501.74 488.52L502.63 489.37L503.48 490.26L504.3 491.17L505.08 492.12L505.83 493.1L506.53 494.11L507.21 495.14L507.84 496.21L508.43 497.29L508.98 498.41L509.49 499.54L509.95 500.7L510.37 501.89L510.74 503.09L511.07 504.31L511.35 505.55L511.58 506.81L511.76 508.08L511.89 509.38L511.97 510.68L512 512L0 512L0.03 510.68L0.11 509.38L0.24 508.08L0.42 506.81L0.65 505.55L0.93 504.31L1.26 503.09L1.63 501.89L2.05 500.7L2.51 499.54L3.02 498.41L3.57 497.29L4.16 496.21L4.79 495.14L5.47 494.11L6.17 493.1L6.92 492.12L7.7 491.17L8.52 490.26L9.37 489.37L10.26 488.52L11.17 487.7L12.12 486.92L13.1 486.17L14.11 485.47L15.14 484.79L16.21 484.16L17.29 483.57L18.41 483.02L19.54 482.51L20.7 482.05L21.89 481.63L23.09 481.26L24.31 480.93L25.55 480.65L26.81 480.42L28.08 480.24L29.38 480.11L30.68 480.03L32 480L480 480L481.32 480.03L482.62 480.11ZM440.13 224.09L441.18 224.19L442.22 224.34L443.24 224.53L444.25 224.76L445.24 225.02L446.22 225.33L447.18 225.67L448.12 226.04L449.04 226.46L449.95 226.9L450.83 227.38L451.7 227.9L452.54 228.44L453.36 229.02L454.15 229.62L454.92 230.26L455.67 230.92L456.38 231.62L457.08 232.33L457.74 233.08L458.38 233.85L458.98 234.64L459.56 235.46L460.1 236.3L460.62 237.17L461.1 238.05L461.54 238.96L461.96 239.88L462.33 240.82L462.67 241.78L462.98 242.76L463.24 243.75L463.47 244.76L463.66 245.78L463.81 246.82L463.91 247.87L463.98 248.93L464 250L464 256L74 256L72.93 255.98L71.87 255.91L70.82 255.81L69.78 255.66L68.76 255.47L67.75 255.24L66.76 254.98L65.78 254.67L64.82 254.33L63.88 253.96L62.96 253.54L62.05 253.1L61.17 252.62L60.3 252.1L59.46 251.56L58.64 250.98L57.85 250.38L57.08 249.74L56.33 249.08L55.62 248.38L54.92 247.67L54.26 246.92L53.62 246.15L53.02 245.36L52.44 244.54L51.9 243.7L51.38 242.83L50.9 241.95L50.46 241.04L50.04 240.12L49.67 239.18L49.33 238.22L49.02 237.24L48.76 236.25L48.53 235.24L48.34 234.22L48.19 233.18L48.09 232.13L48.02 231.07L48 230L48 224L438 224L439.07 224.02L440.13 224.09ZM511.89 2.62L511.76 3.92L511.58 5.19L511.35 6.45L511.07 7.69L510.74 8.91L510.37 10.11L509.95 11.3L509.49 12.46L508.98 13.59L508.43 14.71L507.84 15.79L507.21 16.86L506.53 17.89L505.83 18.9L505.08 19.88L504.3 20.83L503.48 21.74L502.63 22.63L501.74 23.48L500.83 24.3L499.88 25.08L498.9 25.83L497.89 26.53L496.86 27.21L495.79 27.84L494.71 28.43L493.59 28.98L492.46 29.49L491.3 29.95L490.11 30.37L488.91 30.74L487.69 31.07L486.45 31.35L485.19 31.58L483.92 31.76L482.62 31.89L481.32 31.97L480 32L32 32L30.68 31.97L29.38 31.89L28.08 31.76L26.81 31.58L25.55 31.35L24.31 31.07L23.09 30.74L21.89 30.37L20.7 29.95L19.54 29.49L18.41 28.98L17.29 28.43L16.21 27.84L15.14 27.21L14.11 26.53L13.1 25.83L12.12 25.08L11.17 24.3L10.26 23.48L9.37 22.63L8.52 21.74L7.7 20.83L6.92 19.88L6.17 18.9L5.47 17.89L4.79 16.86L4.16 15.79L3.57 14.71L3.02 13.59L2.51 12.46L2.05 11.3L1.63 10.11L1.26 8.91L0.93 7.69L0.65 6.45L0.42 5.19L0.24 3.92L0.11 2.62L0.03 1.32L0 0L512 0L511.97 1.32L511.89 2.62Z" id="e2XVVdsT3F"></path></defs><g><g><g><use xlink:href="#e2XVVdsT3F" opacity="1" fill="#ffffff" fill-opacity="1"></use></g></g></g></svg>